HIERARCHY
ROOT Hips
{
	OFFSET 0.000000 71.427986 0.000000
	CHANNELS 6 Xposition Yposition Zposition Xrotation Yrotation Zrotation
	JOINT Pelvis
	{
		OFFSET 0.000000 0.000000 0.000000
		CHANNELS 3 Xrotation Yrotation Zrotation
		JOINT LeftUpLeg
		{
			OFFSET 6.797100 -2.508499 -1.318700
			CHANNELS 3 Xrotation Yrotation Zrotation
			JOINT LeftLeg
			{
				OFFSET 0.069008 -29.241863 0.690200
				CHANNELS 3 Xrotation Yrotation Zrotation
				JOINT LeftFoot
				{
					OFFSET -0.069008 -29.568123 -0.266800
					CHANNELS 3 Xrotation Yrotation Zrotation
					JOINT LeftToeBase
					{
						OFFSET 3.145500 -8.631000 16.059900
						CHANNELS 3 Xrotation Yrotation Zrotation
						End Site
						{
							OFFSET 0.000000 18.501587 0.000000
						}
					}
				}
			}
			JOINT Left_ShortSleeve
			{
				OFFSET 0.265923 -10.480953 1.153800
				CHANNELS 3 Xrotation Yrotation Zrotation
				End Site
				{
					OFFSET 1.725763 19.823879 0.000000
				}
			}
		}
		JOINT RightUpLeg
		{
			OFFSET -6.797100 -2.508499 -1.318700
			CHANNELS 3 Xrotation Yrotation Zrotation
			JOINT RightLeg
			{
				OFFSET -0.082453 -29.241932 0.688000
				CHANNELS 3 Xrotation Yrotation Zrotation
				JOINT RightFoot
				{
					OFFSET 0.082453 -29.568058 -0.264600
					CHANNELS 3 Xrotation Yrotation Zrotation
					JOINT RightToeBase
					{
						OFFSET -3.115300 -8.682800 16.113400
						CHANNELS 3 Xrotation Yrotation Zrotation
						End Site
						{
							OFFSET 0.000000 18.567114 0.000000
						}
					}
				}
			}
			JOINT Right_ShortSleeve
			{
				OFFSET -0.265923 -10.480953 1.153800
				CHANNELS 3 Xrotation Yrotation Zrotation
				End Site
				{
					OFFSET -1.725766 19.823910 0.000000
				}
			}
		}
	}
	JOINT Spine
	{
		OFFSET 0.000000 13.368103 0.470500
		CHANNELS 3 Xrotation Yrotation Zrotation
		JOINT Spine1
		{
			OFFSET 0.147000 13.837402 0.538800
			CHANNELS 3 Xrotation Yrotation Zrotation
			JOINT Spine2
			{
				OFFSET 0.168000 16.242897 -1.435500
				CHANNELS 3 Xrotation Yrotation Zrotation
				JOINT Neck
				{
					OFFSET 0.217200 18.631500 -1.679100
					CHANNELS 3 Xrotation Yrotation Zrotation
					JOINT Head
					{
						OFFSET 0.000000 6.599396 1.385900
						CHANNELS 3 Xrotation Yrotation Zrotation
						JOINT Hat
						{
							OFFSET -0.532200 27.220596 -10.096100
							CHANNELS 3 Xrotation Yrotation Zrotation
							End Site
							{
								OFFSET 0.000000 22.029861 0.000000
							}
						}
						JOINT HairD
						{
							OFFSET -10.777400 17.437393 -1.325900
							CHANNELS 3 Xrotation Yrotation Zrotation
							JOINT HairD1
							{
								OFFSET -3.290299 -11.051193 1.062200
								CHANNELS 3 Xrotation Yrotation Zrotation
								End Site
								{
									OFFSET 0.000000 11.579437 0.000000
								}
							}
						}
						JOINT HairB
						{
							OFFSET -10.777400 17.437393 1.467900
							CHANNELS 3 Xrotation Yrotation Zrotation
							JOINT HairB1
							{
								OFFSET -1.561200 -12.956299 3.590200
								CHANNELS 3 Xrotation Yrotation Zrotation
								End Site
								{
									OFFSET 0.000000 13.534866 0.000000
								}
							}
						}
						JOINT HairA
						{
							OFFSET 9.713100 17.437393 1.467900
							CHANNELS 3 Xrotation Yrotation Zrotation
							JOINT HairA1
							{
								OFFSET 1.561200 -12.956299 3.590200
								CHANNELS 3 Xrotation Yrotation Zrotation
								End Site
								{
									OFFSET 0.000000 13.534866 0.000000
								}
							}
						}
						JOINT HairC
						{
							OFFSET 9.713100 17.437393 -1.325900
							CHANNELS 3 Xrotation Yrotation Zrotation
							JOINT HairC1
							{
								OFFSET 3.290300 -11.051193 1.062200
								CHANNELS 3 Xrotation Yrotation Zrotation
								End Site
								{
									OFFSET 0.000000 11.579437 0.000000
								}
							}
						}
					}
				}
				JOINT LeftShoulder
				{
					OFFSET 5.101800 15.108002 -2.763700
					CHANNELS 3 Xrotation Yrotation Zrotation
					JOINT LeftArm
					{
						OFFSET 9.825497 2.506317 -1.597400
						CHANNELS 3 Xrotation Yrotation Zrotation
						JOINT LeftForeArm
						{
							OFFSET 21.966244 0.000000 0.000000
							CHANNELS 3 Xrotation Yrotation Zrotation
							JOINT LeftHand
							{
								OFFSET 33.879036 0.000000 0.000000
								CHANNELS 3 Xrotation Yrotation Zrotation
								JOINT LeftHandThumb1
								{
									OFFSET 6.715286 -2.359680 3.363841
									CHANNELS 3 Xrotation Yrotation Zrotation
									JOINT LeftHandThumb2
									{
										OFFSET 2.507072 -1.447464 1.447461
										CHANNELS 3 Xrotation Yrotation Zrotation
										JOINT LeftHandThumb3
										{
											OFFSET 2.898338 -1.673355 1.673357
											CHANNELS 3 Xrotation Yrotation Zrotation
											End Site
											{
												OFFSET -0.295959 3.727692 -0.131651
											}
										}
									}
								}
								JOINT LeftHandIndex1
								{
									OFFSET 14.190811 -0.254547 3.840278
									CHANNELS 3 Xrotation Yrotation Zrotation
									JOINT LeftHandIndex2
									{
										OFFSET 3.551727 0.000000 -0.000000
										CHANNELS 3 Xrotation Yrotation Zrotation
										JOINT LeftHandIndex3
										{
											OFFSET 2.894196 0.000000 0.000000
											CHANNELS 3 Xrotation Yrotation Zrotation
											End Site
											{
												OFFSET -1.000603 2.690872 0.366626
											}
										}
									}
								}
								JOINT LeftHandMiddle1
								{
									OFFSET 13.776489 0.000000 0.000000
									CHANNELS 3 Xrotation Yrotation Zrotation
									JOINT LeftHandMiddle2
									{
										OFFSET 3.438232 0.000000 0.000000
										CHANNELS 3 Xrotation Yrotation Zrotation
										JOINT LeftHandMiddle3
										{
											OFFSET 3.691551 0.000000 0.000000
											CHANNELS 3 Xrotation Yrotation Zrotation
											End Site
											{
												OFFSET -1.082298 3.499527 0.457670
											}
										}
									}
								}
								JOINT LeftHandRing1
								{
									OFFSET 13.966164 -0.268127 -3.067488
									CHANNELS 3 Xrotation Yrotation Zrotation
									JOINT LeftHandRing2
									{
										OFFSET 3.162567 0.000000 0.000000
										CHANNELS 3 Xrotation Yrotation Zrotation
										JOINT LeftHandRing3
										{
											OFFSET 3.324348 0.000000 0.000000
											CHANNELS 3 Xrotation Yrotation Zrotation
											End Site
											{
												OFFSET -0.861900 3.184998 0.405154
											}
										}
									}
								}
								JOINT LeftHandPinky1
								{
									OFFSET 13.131393 -0.168503 -5.746925
									CHANNELS 3 Xrotation Yrotation Zrotation
									JOINT LeftHandPinky2
									{
										OFFSET 2.849182 0.000000 0.000000
										CHANNELS 3 Xrotation Yrotation Zrotation
										JOINT LeftHandPinky3
										{
											OFFSET 2.805038 0.000000 0.000000
											CHANNELS 3 Xrotation Yrotation Zrotation
											End Site
											{
												OFFSET -0.882500 2.642609 0.325652
											}
										}
									}
								}
							}
							JOINT Left_Sleeve
							{
								OFFSET 6.592125 -0.646545 0.805568
								CHANNELS 3 Xrotation Yrotation Zrotation
								End Site
								{
									OFFSET -0.000179 20.275787 -0.000000
								}
							}
						}
					}
				}
				JOINT RightShoulder
				{
					OFFSET -5.731700 15.108002 -2.763700
					CHANNELS 3 Xrotation Yrotation Zrotation
					JOINT RightArm
					{
						OFFSET -9.825497 2.506317 -1.597400
						CHANNELS 3 Xrotation Yrotation Zrotation
						JOINT RightForeArm
						{
							OFFSET -21.966242 0.000000 0.000000
							CHANNELS 3 Xrotation Yrotation Zrotation
							JOINT RightHand
							{
								OFFSET -33.879032 0.000000 0.000000
								CHANNELS 3 Xrotation Yrotation Zrotation
								JOINT RightHandThumb1
								{
									OFFSET -6.715286 -2.359680 3.363841
									CHANNELS 3 Xrotation Yrotation Zrotation
									JOINT RightHandThumb2
									{
										OFFSET -2.507072 -1.447464 1.447461
										CHANNELS 3 Xrotation Yrotation Zrotation
										JOINT RightHandThumb3
										{
											OFFSET -2.898338 -1.673355 1.673357
											CHANNELS 3 Xrotation Yrotation Zrotation
											End Site
											{
												OFFSET 0.295959 3.727692 -0.131651
											}
										}
									}
								}
								JOINT RightHandIndex1
								{
									OFFSET -14.190811 -0.254547 3.840278
									CHANNELS 3 Xrotation Yrotation Zrotation
									JOINT RightHandIndex2
									{
										OFFSET -3.551727 0.000000 -0.000000
										CHANNELS 3 Xrotation Yrotation Zrotation
										JOINT RightHandIndex3
										{
											OFFSET -2.894196 0.000000 0.000000
											CHANNELS 3 Xrotation Yrotation Zrotation
											End Site
											{
												OFFSET 1.000603 2.690872 0.366626
											}
										}
									}
								}
								JOINT RightHandMiddle1
								{
									OFFSET -13.776489 0.000000 0.000000
									CHANNELS 3 Xrotation Yrotation Zrotation
									JOINT RightHandMiddle2
									{
										OFFSET -3.438232 0.000000 0.000000
										CHANNELS 3 Xrotation Yrotation Zrotation
										JOINT RightHandMiddle3
										{
											OFFSET -3.691551 0.000000 0.000000
											CHANNELS 3 Xrotation Yrotation Zrotation
											End Site
											{
												OFFSET 1.082298 3.499527 0.457670
											}
										}
									}
								}
								JOINT RightHandRing1
								{
									OFFSET -13.966164 -0.268127 -3.067488
									CHANNELS 3 Xrotation Yrotation Zrotation
									JOINT RightHandRing2
									{
										OFFSET -3.162567 0.000000 0.000000
										CHANNELS 3 Xrotation Yrotation Zrotation
										JOINT RightHandRing3
										{
											OFFSET -3.324348 0.000000 0.000000
											CHANNELS 3 Xrotation Yrotation Zrotation
											End Site
											{
												OFFSET 0.861900 3.184998 0.405154
											}
										}
									}
								}
								JOINT RightHandPinky1
								{
									OFFSET -13.131393 -0.168503 -5.746925
									CHANNELS 3 Xrotation Yrotation Zrotation
									JOINT RightHandPinky2
									{
										OFFSET -2.849182 0.000000 0.000000
										CHANNELS 3 Xrotation Yrotation Zrotation
										JOINT RightHandPinky3
										{
											OFFSET -2.805038 0.000000 0.000000
											CHANNELS 3 Xrotation Yrotation Zrotation
											End Site
											{
												OFFSET 0.882500 2.642609 0.325652
											}
										}
									}
								}
							}
							JOINT Right_Sleeve
							{
								OFFSET -6.592125 -0.646545 0.805568
								CHANNELS 3 Xrotation Yrotation Zrotation
								End Site
								{
									OFFSET 0.000179 20.275787 -0.000000
								}
							}
						}
					}
				}
				JOINT Bind_Right_JacketString
				{
					OFFSET -3.534800 11.969597 7.200700
					CHANNELS 3 Xrotation Yrotation Zrotation
					JOINT Bind_Right_JacketString1
					{
						OFFSET -0.319900 -6.102600 2.794100
						CHANNELS 3 Xrotation Yrotation Zrotation
						End Site
						{
							OFFSET 0.000000 6.719452 0.000000
						}
					}
				}
				JOINT Bind_Left_JacketString
				{
					OFFSET 2.904800 11.969597 7.200700
					CHANNELS 3 Xrotation Yrotation Zrotation
					JOINT Bind_Left_JacketString1
					{
						OFFSET 0.364800 -5.904503 3.186800
						CHANNELS 3 Xrotation Yrotation Zrotation
						End Site
						{
							OFFSET 0.000000 6.719513 0.000000
						}
					}
				}
				JOINT HairE
				{
					OFFSET 5.915200 17.612701 -11.592200
					CHANNELS 3 Xrotation Yrotation Zrotation
					JOINT HairE1
					{
						OFFSET 0.289200 -7.171898 -1.284500
						CHANNELS 3 Xrotation Yrotation Zrotation
						End Site
						{
							OFFSET 0.000000 7.291756 0.000000
						}
					}
				}
				JOINT HairF
				{
					OFFSET -0.864800 17.612701 -11.592200
					CHANNELS 3 Xrotation Yrotation Zrotation
					JOINT HairF1
					{
						OFFSET 0.000000 -14.087097 -2.127501
						CHANNELS 3 Xrotation Yrotation Zrotation
						End Site
						{
							OFFSET 0.000000 14.246841 0.000000
						}
					}
				}
				JOINT HairG
				{
					OFFSET -8.087700 17.612701 -11.592200
					CHANNELS 3 Xrotation Yrotation Zrotation
					JOINT HairG1
					{
						OFFSET -0.293600 -6.081398 -0.910100
						CHANNELS 3 Xrotation Yrotation Zrotation
						End Site
						{
							OFFSET 0.000000 6.156120 0.000000
						}
					}
				}
			}
		}
	}
	JOINT Pouch
	{
		OFFSET 0.000000 4.394501 10.847300
		CHANNELS 3 Xrotation Yrotation Zrotation
		End Site
		{
			OFFSET 0.000000 21.880577 0.000000
		}
	}
	JOINT Bag
	{
		OFFSET -13.229000 4.813004 -0.593300
		CHANNELS 3 Xrotation Yrotation Zrotation
		End Site
		{
			OFFSET 0.000000 21.880577 0.000000
		}
	}
	JOINT OccupyGuyFacialAnim_Joint
	{
		OFFSET 1.000000 -70.206398 -1.655000
		CHANNELS 3 Xrotation Yrotation Zrotation
		End Site
		{
			OFFSET 0.000000 21.880577 0.000000
		}
	}
}
MOTION
Frames: 4
Frame Time: 0.033333
1.351750 70.808815 9.196049 0.534694 -2.484377 -6.764379 0.000000 0.000000 0.000000 -19.817208 11.193182 22.323111 34.850026 7.022991 0.222407 -10.147755 0.688154 -3.659999 -0.000000 0.000001 -0.000000 0.000001 -0.000002 -0.000001 -34.924987 -7.951885 -21.171802 54.276307 -8.730742 -1.450751 21.763541 -13.413987 18.956825 -0.000000 -0.000004 0.000000 -0.000003 0.000000 -0.000000 3.028905 -5.160130 0.176954 2.249843 -0.765926 0.473885 2.238040 -0.755939 0.451873 1.470237 -4.853135 9.831600 -5.342204 -12.739963 1.814331 0.000000 0.000001 -0.000000 0.000000 0.000001 -0.000000 0.000000 0.000001 -0.000000 0.000000 0.000001 -0.000000 -0.000000 -0.000001 0.000000 0.000000 0.000001 -0.000000 -0.000000 -0.000001 0.000000 0.000000 0.000001 -0.000000 0.000000 0.000001 -0.000000 3.351068 -24.443785 2.021664 2.196309 -55.619600 -3.308197 -0.000113 -98.045999 -0.000096 10.069874 -16.490141 -10.695085 -0.170905 -8.433626 8.524695 28.151342 40.699830 -40.268569 -0.000001 0.000001 -0.000001 8.811029 3.444397 -79.249394 5.106768 5.803673 -82.679296 0.000004 -0.000002 -0.000000 3.333953 7.702481 -74.226070 7.617201 5.579022 -107.597377 0.000000 0.000002 -0.000001 1.222705 7.451107 -79.688575 6.276896 5.835615 -94.180891 -0.000000 0.000001 0.000000 3.824503 16.165697 -84.777080 2.476400 4.782583 -54.729968 -0.000000 -0.000001 0.000004 -0.000001 -0.000000 -0.000001 -22.853238 5.933406 -10.423076 -13.509167 20.878377 -5.046421 -0.000003 20.301486 -0.000014 -39.056138 18.629973 -22.165893 -0.911905 10.394949 -7.978569 9.320392 -37.042534 6.117628 0.000000 -0.000001 0.000001 5.844104 -1.313880 51.374945 4.065498 -4.619490 82.693148 0.000003 -0.000003 0.000001 2.394245 -6.449789 73.508743 6.061304 -4.440884 107.565733 -0.000000 0.000002 -0.000001 1.061122 -7.061116 91.924470 4.352639 -4.647241 86.246732 0.000001 -0.000002 -0.000003 3.692926 -14.857975 97.846763 1.761106 -3.648762 51.517795 -0.000001 0.000000 0.000001 0.000001 -0.000001 0.000001 -0.000001 -0.000000 -0.000000 0.000000 -0.000000 0.000000 -0.000001 -0.000000 -0.000000 -0.000001 -0.000000 -0.000000 -0.000001 -0.000000 -0.000000 0.000000 -0.000000 -0.000000 -0.000001 -0.000000 -0.000000 -0.000001 -0.000000 -0.000000 -0.000001 -0.000000 -0.000000 0.000000 -0.000000 -0.000000 0.000000 0.000000 0.000000 0.000000 0.000000 0.000000 0.000000 0.000000 0.000000 
-0.680619 70.804466 9.821946 1.552946 -0.340040 -4.999742 -0.000000 0.000000 -0.000000 -20.006481 13.772965 17.537723 37.340258 3.302824 0.286356 -9.817786 1.687158 -8.487646 0.000001 -0.000001 0.000000 -0.000001 0.000000 -0.000000 -20.302099 -5.399880 -17.935674 30.558499 -6.695984 -1.250676 20.203129 -8.643819 19.658123 -0.000002 -0.000000 0.000001 0.000001 0.000001 -0.000002 1.371254 -5.399952 -2.683877 1.273928 -0.823628 0.243942 1.260575 -0.820405 0.233230 1.709290 -5.259812 11.914198 -1.699382 -12.016275 0.901970 -0.000000 0.000001 0.000000 -0.000000 0.000001 0.000000 -0.000000 0.000001 0.000000 -0.000000 0.000001 -0.000000 -0.000001 0.000001 0.000000 -0.000000 0.000001 -0.000000 -0.000001 0.000001 0.000000 -0.000000 0.000001 0.000000 -0.000000 0.000001 0.000000 2.697917 -25.065025 -0.555644 10.446656 -52.790652 3.853656 -0.000137 -99.311797 -0.000138 3.785627 -14.959673 -12.902918 -0.170905 -8.433628 8.524698 28.151335 40.699813 -40.268572 0.000000 0.000002 0.000001 8.811023 3.444390 -79.249415 5.106758 5.803680 -82.679303 0.000001 0.000000 -0.000002 3.333948 7.702480 -74.226077 7.617193 5.579017 -107.597370 0.000001 -0.000001 -0.000001 1.222711 7.451107 -79.688568 6.276907 5.835609 -94.180884 0.000001 0.000001 -0.000002 3.824508 16.165693 -84.777093 2.476399 4.782583 -54.729947 -0.000001 -0.000001 -0.000001 0.000000 0.000000 -0.000000 -23.289521 0.178159 -12.490136 16.937896 30.071554 -14.255926 0.000003 0.000001 -0.000000 -30.269995 19.477090 -5.915781 -0.911902 10.394954 -7.978570 9.320381 -37.042541 6.117619 -0.000005 -0.000001 0.000000 5.844113 -1.313873 51.374948 4.065493 -4.619492 82.693141 -0.000001 -0.000001 0.000002 2.394239 -6.449782 73.508770 6.061307 -4.440898 107.565753 -0.000001 -0.000003 0.000001 1.061139 -7.061120 91.924497 4.352657 -4.647230 86.246738 0.000002 0.000001 -0.000002 3.692924 -14.857982 97.846770 1.761110 -3.648752 51.517808 -0.000001 0.000001 0.000001 -0.000000 0.000002 -0.000004 -0.000000 0.000001 -0.000000 -0.000000 0.000000 0.000001 -0.000000 0.000001 -0.000000 -0.000000 0.000001 -0.000000 -0.000000 0.000001 -0.000000 -0.000000 0.000000 0.000000 -0.000000 0.000001 -0.000000 -0.000000 0.000001 -0.000000 -0.000000 0.000001 -0.000000 -0.000000 0.000000 0.000000 -0.000000 0.000000 -0.000000 -0.000000 0.000000 -0.000000 -0.000000 0.000000 -0.000000 
-2.509323 70.150696 10.251759 2.011339 2.070762 -4.281573 -0.000000 0.000000 0.000000 -17.776221 14.476699 11.525495 37.526285 5.096227 0.582820 -15.035835 5.702600 -6.579545 0.000001 -0.000001 0.000000 -0.000001 -0.000000 -0.000000 -19.416179 -1.829115 -14.874166 33.509369 -11.319685 -1.091290 6.083081 -9.990337 8.756046 -0.000001 -0.000000 0.000001 0.000002 0.000000 -0.000000 0.581694 -5.649943 -3.572664 0.964018 -0.865272 0.336951 0.952213 -0.863624 0.328464 1.092645 -5.099336 11.800238 -0.105814 -10.715170 0.345562 -0.000000 0.000002 0.000000 -0.000000 0.000002 0.000000 -0.000000 0.000002 0.000000 -0.000000 0.000002 0.000000 -0.000000 0.000002 0.000000 -0.000000 0.000002 0.000000 -0.000000 0.000002 0.000000 -0.000000 0.000002 0.000000 -0.000000 0.000002 0.000000 2.183311 -24.688214 -2.712892 12.863463 -49.971317 4.268458 0.000003 -101.719917 0.000001 1.435113 -14.279047 -14.719153 -0.170900 -8.433625 8.524695 28.151325 40.699817 -40.268555 -0.000000 0.000003 -0.000003 8.811029 3.444388 -79.249421 5.106757 5.803680 -82.679317 0.000000 0.000001 0.000000 3.333947 7.702479 -74.226090 7.617196 5.579021 -107.597363 0.000000 -0.000000 0.000001 1.222708 7.451105 -79.688568 6.276908 5.835618 -94.180884 -0.000001 0.000002 -0.000001 3.824505 16.165690 -84.777080 2.476397 4.782583 -54.729957 -0.000001 -0.000001 0.000004 -0.000001 0.000000 -0.000000 -23.957459 -3.996417 -15.169666 33.753166 25.674469 -19.345597 0.000006 11.529718 0.000002 -3.335067 21.363864 -2.262597 -0.911904 10.394950 -7.978564 9.320372 -37.042541 6.117623 -0.000000 0.000000 -0.000003 5.844114 -1.313881 51.374965 4.065492 -4.619492 82.693148 -0.000003 -0.000002 0.000002 2.394247 -6.449791 73.508757 6.061293 -4.440898 107.565726 -0.000002 0.000000 0.000003 1.061145 -7.061120 91.924497 4.352650 -4.647247 86.246745 0.000002 -0.000002 0.000001 3.692924 -14.857989 97.846756 1.761112 -3.648761 51.517795 -0.000000 -0.000002 0.000000 0.000001 0.000002 -0.000003 -0.000000 0.000000 -0.000000 0.000000 0.000001 0.000000 -0.000000 0.000000 0.000000 -0.000000 0.000000 0.000000 -0.000000 0.000000 -0.000000 0.000000 0.000001 0.000000 -0.000000 0.000000 0.000000 -0.000000 0.000000 0.000000 -0.000000 0.000000 -0.000000 0.000000 0.000001 0.000000 -0.000000 0.000000 0.000000 -0.000000 0.000000 0.000000 -0.000000 0.000000 0.000000 
-4.238616 69.054062 10.247532 1.822075 4.457131 -5.050744 0.000000 0.000000 -0.000000 -17.263761 11.898968 8.657936 38.636594 9.576356 0.938700 -20.112209 10.972779 -5.116034 0.000000 -0.000001 0.000000 0.000001 -0.000001 -0.000000 -13.358549 -3.579571 -12.290938 27.912564 -9.959658 -1.183867 -2.582621 -12.491984 10.901906 0.000000 -0.000001 -0.000001 0.000000 -0.000000 0.000000 1.147459 -5.912080 -2.050565 1.406293 -0.894518 0.625031 1.397452 -0.889830 0.608932 0.203921 -4.238708 9.914976 -1.780053 -8.185101 0.144140 -0.000000 0.000000 0.000000 -0.000000 0.000000 0.000000 -0.000000 0.000000 -0.000000 -0.000000 0.000000 -0.000000 -0.000000 0.000002 -0.000000 -0.000000 0.000000 -0.000000 -0.000000 0.000002 -0.000000 -0.000000 0.000000 0.000000 -0.000000 0.000000 0.000000 2.081781 -23.743467 -3.459096 10.104332 -47.660500 -1.238455 -0.000111 -103.639965 -0.000109 3.874322 -15.375710 -15.480108 -0.170906 -8.433630 8.524699 28.151335 40.699823 -40.268569 0.000001 0.000002 -0.000000 8.811027 3.444390 -79.249428 5.106761 5.803681 -82.679290 0.000002 0.000002 0.000004 3.333944 7.702477 -74.226090 7.617193 5.579019 -107.597377 0.000000 0.000001 0.000001 1.222706 7.451103 -79.688575 6.276905 5.835611 -94.180871 -0.000001 0.000001 -0.000001 3.824506 16.165693 -84.777107 2.476394 4.782584 -54.729947 -0.000000 0.000000 0.000001 -0.000001 0.000000 -0.000000 -24.446360 -4.970309 -16.788586 33.496084 15.197647 -16.448450 -0.000003 44.121373 0.000010 16.871734 14.888170 -9.025406 -0.911904 10.394956 -7.978562 9.320377 -37.042547 6.117619 -0.000001 -0.000001 -0.000001 5.844113 -1.313880 51.374962 4.065472 -4.619494 82.693162 0.000002 -0.000000 0.000000 2.394247 -6.449784 73.508777 6.061296 -4.440907 107.565733 0.000004 -0.000001 0.000003 1.061141 -7.061112 91.924490 4.352626 -4.647246 86.246704 0.000000 -0.000001 -0.000001 3.692924 -14.857980 97.846777 1.761105 -3.648756 51.517801 -0.000002 0.000001 0.000001 -0.000001 -0.000000 -0.000001 0.000000 0.000000 -0.000000 0.000001 0.000000 0.000000 0.000000 0.000000 -0.000000 0.000000 0.000000 -0.000000 0.000000 0.000000 -0.000000 0.000001 0.000000 -0.000000 0.000000 0.000000 -0.000000 0.000000 0.000000 -0.000000 0.000000 0.000000 -0.000000 0.000001 0.000000 -0.000000 0.000000 0.000000 -0.000000 0.000000 0.000000 -0.000000 0.000000 0.000000 -0.000000 
